<svg width="512" height="512" viewBox="0 0 512 512" fill="none" xmlns="http://www.w3.org/2000/svg">
  <path d="M256 64C150.4 64 64 150.4 64 256s86.4 192 192 192 192-86.4 192-192S361.6 64 256 64zm0 336c-79.5 0-144-64.5-144-144s64.5-144 144-144 144 64.5 144 144-64.5 144-144 144z" fill="#4D5B4D"/>
  <path d="M256 160c-52.9 0-96 43.1-96 96s43.1 96 96 96 96-43.1 96-96-43.1-96-96-96zm0 144c-26.5 0-48-21.5-48-48s21.5-48 48-48 48 21.5 48 48-21.5 48-48 48z" fill="#637463"/>
  <circle cx="256" cy="256" r="32" fill="#2F332F"/>
</svg>